<svg xmlns:xlink="http://www.w3.org/1999/xlink" xmlns="http://www.w3.org/2000/svg" width="62" height="61" viewBox="0 0 62 61"><g fill="#001457" stroke-width="8px"><rect class="nc-transparent-rect" x="0" y="0" width="62" height="61" rx="0" ry="0" fill="none" stroke="none" stroke-width="8px"></rect><g fill-rule="evenodd" stroke-linejoin="round" class="nc-icon-wrapper" fill="#001457" stroke-width="8px"><circle cx="35.9" cy="25.4" r="25" fill="#EAEBE4" stroke-width="8px"></circle><path d="M39.6 60.1c-.6 0-1.1 0-1.5-.1h-.2C20.2 57.8 5.5 42.6 2.2 23l-.1-.4c-.7-4 .6-8.1 3.4-10.9l1-1c1.2-1.2 2.6-1.8 4.2-1.8s3 .6 4.1 1.7l5.6 5.8c2.2 2.3 2.3 5.8.4 8.2l-2.6 3.3 1.6 2.8c2.8 4.8 7 8.9 12 11.7l1.9 1 3.1-3.3c.9-1 2.3-1.6 3.7-1.6 1.4 0 2.7.6 3.7 1.6l5.6 6c2.2 2.3 2 6.1-.3 8.2L45.6 58c-1.6 1.7-4.1 2.1-6 2.1zM38.4 57c.6.1 3.7.3 5.1-1.1l3.9-3.7c.5-.5.8-1.2.9-2 0-.8-.2-1.5-.7-2l-5.6-6c-.8-.8-2.2-.8-3 0l-4.7 4.9-3.9-2.1c-5.6-3.1-10.1-7.5-13.2-12.9l-2.6-4.6 3.8-4.9c1-1.2.9-3.1-.2-4.2l-5.6-5.8c-1-1-2.9-1.1-4 0l-1 1c-2.2 2.2-3.1 5.2-2.6 8.2l.1.4C8.2 40.7 21.8 55 38.3 57" fill="#002F47" fill-rule="nonzero" stroke-width="8px"></path><path d="M30.329 18.342l4.016 2.008c3.076 1.447 5.88 4.036 7.249 7.178.004.008.983 2.946.983 2.946a1.5 1.5 0 0 0 2.846-.948l-1.02-3.06-.024-.057c-1.639-3.823-5.009-7.005-8.722-8.758l-3.986-1.993a1.502 1.502 0 0 0-2.013.671 1.502 1.502 0 0 0 .671 2.013zm1.114-9.949l4.959 1.983c7.324 3.438 12.25 9.649 15.202 17.172l.024.063 1.03 2.06a1.502 1.502 0 0 0 2.013.671 1.502 1.502 0 0 0 .671-2.013l-.971-1.94c-3.246-8.236-8.701-14.991-16.736-18.748l-.038-.018-5.04-2.016a1.501 1.501 0 0 0-1.114 2.786z" fill="#002F47" stroke-width="8px"></path></g></g></svg>