<svg xmlns:xlink="http://www.w3.org/1999/xlink" xmlns="http://www.w3.org/2000/svg" width="88" height="78" viewBox="0 0 88 78.19"><g fill="#001457" stroke-width="8px"><rect class="nc-transparent-rect" x="0" y="0" width="88" height="78.19" rx="0" ry="0" fill="none" stroke="none" stroke-width="8px"></rect><g class="nc-icon-wrapper" fill="#001457" stroke-width="8px"><rect x="21" width="59" height="41.6" rx="2.41" fill="#EAEBE4" stroke-width="8px"></rect><circle cx="42" cy="39.19" r="3" fill="#002F47" stroke-width="8px"></circle><circle cx="30" cy="39.19" r="3" fill="#002F47" stroke-width="8px"></circle><circle cx="18" cy="39.19" r="3" fill="#002F47" stroke-width="8px"></circle><path d="M88 12.19a8 8 0 00-8-8H36a8 8 0 00-8 8v4H8a8 8 0 00-8 8v30a8 8 0 008 8h4v14a2 2 0 002 2 2.15 2.15 0 001.5-.69l13.39-15.31H52a8 8 0 008-8v-3L72.5 65.5a2 2 0 003.5-1.31v-14h4a8 8 0 008-8zm-32 42a3.91 3.91 0 01-4 4H28a2 2 0 00-1.5.67L16 70.85V60.19a2.13 2.13 0 00-2-2H8a3.91 3.91 0 01-4-4v-30a3.91 3.91 0 014-4h44a3.91 3.91 0 014 4zm28-12a3.91 3.91 0 01-4 4h-6a2.13 2.13 0 00-2 2v10.65l-1.75-2c-3.33-3.78-8.78-9.91-9.72-10.76l-.53-.17V24.19a8 8 0 00-8-8H32v-4a3.91 3.91 0 014-4h44a3.91 3.91 0 014 4z" fill="#002F47" stroke-width="8px"></path></g></g></svg>