<svg xmlns:xlink="http://www.w3.org/1999/xlink" xmlns="http://www.w3.org/2000/svg" width="54" height="52" viewBox="0 0 54.88 52.51"><g fill="#001457" stroke-width="8px"><rect class="nc-transparent-rect" x="0" y="0" width="54.88" height="52.51" rx="0" ry="0" fill="none" stroke="none" stroke-width="8px"></rect><g class="nc-icon-wrapper" fill="#001457" stroke-width="8px"><rect y="6.89" width="35.98" height="45.63" rx="2.41" fill="#EAEBE4" stroke-width="8px"></rect><path d="M3.89 14.76a.87.87 0 00-.17.22.93.93 0 00-.13.28 1 1 0 000 .26V42.9a6 6 0 006 6h26.04a6 6 0 006-6V32.29L53.72 20.2a4 4 0 000-5.66l-1.65-1.65a4 4 0 00-5.65 0l-4.79 4.79V6a6 6 0 00-6-6H19.76a1.31 1.31 0 00-.29.06h-.1a1.05 1.05 0 00-.29.17zM15.78 5.9l3-2.66v7.28a4 4 0 01-4 4H7.27zm32.05 8.41a2 2 0 012.83 0l1.64 1.65a2 2 0 010 2.82l-1.38 1.39-4.48-4.47zm-2.8 2.8l4.48 4.48-16.13 16.12-6 1.52 1.53-6zm-24.27-6.59V2h14.87a4 4 0 014 4v13.68L27.3 32.01a1.08 1.08 0 00-.27.46l-2 7.89a1 1 0 00.72 1.22 1 1 0 00.49 0l7.9-2a1 1 0 00.46-.26l5-5v8.61a4 4 0 01-4 4H9.55a4 4 0 01-4-4V16.52h9.21a6 6 0 006-6z" fill="#002F47" stroke-width="8px"></path></g></g></svg>